# xmcd
# 
# Track frame offsets:
#     150
#     19887
#     41025
#     61182
#     75087
#     91605
#     108315
#     127997
#     148940
#     172790
# 
# Disc length: 2490
# 
# Revision: 4
# Processed by: cddbd v1.5.2PL0 Copyright (c) Steve Scherf et al.
# Submitted via: BonkEnc v1.0.8
# 
DISCID=6f09b80a
DTITLE=The Manhattans - Greatest Hits - The Manhattans - Greatest Hits
DYEAR=0
DGENRE=Ballad
TTITLE0=I'll Never Find Another
TTITLE1=Shinning Star
TTITLE2=Kiss and Say Goodbye
TTITLE3=Hurt
TTITLE4=There's No Me Without You
TTITLE5=Do You Really Mean Goodbye?
TTITLE6=We Never Danced To A Love Song
TTITLE7=It Feels So Good To Be Loved So Bad
TTITLE8=I Kinda Miss You
TTITLE9=Don't Take Your Love
EXTD=
EXTT0=
EXTT1=
EXTT2=
EXTT3=
EXTT4=
EXTT5=
EXTT6=
EXTT7=
EXTT8=
EXTT9=
PLAYORDER=
